<svg xmlns="http://www.w3.org/2000/svg" width="13.03" height="13" viewBox="0 0 13.03 13">
  <defs>
    <style>
      .cls-1 {
        fill: #4099da;
        fill-rule: evenodd;
      }
    </style>
  </defs>
  <path id="Forma_1_copy_7" data-name="Forma 1 copy 7" class="cls-1" d="M1870.39,3011.1h-11.87a0.563,0.563,0,0,1-.52-0.6,0.557,0.557,0,0,1,.52-0.6h11.87a0.557,0.557,0,0,1,.52.6A0.563,0.563,0,0,1,1870.39,3011.1Zm0.47-.18-5.13,5.89a0.47,0.47,0,0,1-.74,0,0.677,0.677,0,0,1,0-.85l4.76-5.46-4.76-5.47a0.677,0.677,0,0,1,0-.85,0.488,0.488,0,0,1,.74,0l5.13,5.89A0.677,0.677,0,0,1,1870.86,3010.92Z" transform="translate(-1858 -3004)"/>
</svg>
