<svg xmlns="http://www.w3.org/2000/svg" width="12.969" height="13" viewBox="0 0 12.969 13">
  <defs>
    <style>
      .cls-1 {
        fill: #99a4ae;
        fill-rule: evenodd;
      }
    </style>
  </defs>
  <path id="Forma_1_copy_7" data-name="Forma 1 copy 7" class="cls-1" d="M27.644,3011.1H39.48a0.566,0.566,0,0,0,.522-0.6,0.56,0.56,0,0,0-.522-0.6H27.644a0.56,0.56,0,0,0-.522.6A0.566,0.566,0,0,0,27.644,3011.1Zm-0.474-.18,5.118,5.89a0.469,0.469,0,0,0,.738,0,0.667,0.667,0,0,0,0-.85l-4.748-5.46,4.748-5.47a0.667,0.667,0,0,0,0-.85,0.486,0.486,0,0,0-.738,0l-5.117,5.89A0.667,0.667,0,0,0,27.17,3010.92Z" transform="translate(-27.031 -3004)"/>
</svg>
