<svg xmlns="http://www.w3.org/2000/svg" width="13" height="13" viewBox="0 0 13 13">
  <defs>
    <style>
      .cls-1 {
        fill: #fff;
        fill-rule: evenodd;
      }
    </style>
  </defs>
  <path id="Forma_1_copy_5" data-name="Forma 1 copy 5" class="cls-1" d="M677.356,785.1H665.52a0.607,0.607,0,0,1,0-1.2h11.836A0.607,0.607,0,0,1,677.356,785.1Zm0.474-.175-5.118,5.89a0.476,0.476,0,0,1-.738,0,0.67,0.67,0,0,1,0-.852l4.748-5.464-4.748-5.465a0.668,0.668,0,0,1,0-.851,0.478,0.478,0,0,1,.738,0l5.118,5.892A0.669,0.669,0,0,1,677.83,784.923Z" transform="translate(-665 -778)"/>
</svg>
